<svg xmlns="http://www.w3.org/2000/svg" viewBox="8 -24 272 272" width="272" height="272" role="img" aria-label="hush"><rect x="8" y="-24" width="272" height="272" rx="32" fill="#1f3a34"/>
<g transform="translate(-368.000000,447.857205) scale(0.100000,-0.100000)"
fill="#e6edf3" stroke="none">
<path d="M5212 4468 c-30 -30 -6 -141 57 -265 39 -78 40 -101 4 -109 -16 -4
-52 -20 -81 -36 -60 -34 -92 -33 -143 4 -39 29 -135 33 -153 6 -18 -29 5 -52
57 -60 26 -3 61 -16 78 -29 18 -13 52 -24 80 -27 40 -4 57 1 103 27 31 17 63
31 72 31 28 0 73 33 85 62 16 39 6 98 -26 161 -36 67 -65 153 -65 188 0 46
-41 74 -68 47z"/>
<path d="M4023 4445 c-16 -27 24 -357 72 -599 32 -165 66 -265 122 -365 111
-195 407 -440 609 -502 l76 -24 -6 -45 c-4 -25 -16 -117 -27 -205 -25 -199
-42 -271 -85 -362 -19 -39 -34 -80 -34 -90 0 -26 35 -58 95 -84 291 -129 571
-36 660 220 12 35 13 36 66 37 127 2 220 107 235 266 5 49 16 78 48 133 72
121 79 154 52 220 -21 51 -59 70 -135 70 -38 0 -66 5 -68 11 -2 6 18 27 44 48
164 127 277 274 342 447 57 148 155 772 129 822 -5 9 -20 17 -33 17 -33 0 -41
-20 -49 -115 -10 -111 -53 -400 -78 -520 -53 -258 -146 -411 -354 -581 l-44
-36 -35 30 c-42 37 -103 56 -156 47 -21 -4 -75 -24 -120 -46 -44 -21 -83 -39
-85 -39 -3 0 -3 48 -2 106 l3 107 60 17 c83 23 150 59 217 118 32 28 66 53 77
57 25 8 36 41 21 60 -7 8 -28 17 -49 21 -20 4 -83 31 -140 60 -89 47 -111 54
-160 54 -52 0 -59 3 -89 35 -59 62 -131 58 -177 -10 -18 -28 -24 -30 -72 -27
-47 3 -64 -3 -152 -48 -55 -28 -121 -57 -147 -63 -26 -7 -52 -20 -58 -30 -9
-15 -6 -22 17 -40 15 -12 47 -38 70 -58 69 -60 151 -107 216 -125 60 -17 61
-18 60 -53 0 -20 -10 -101 -22 -181 -26 -168 -25 -168 -127 -127 -86 35 -157
80 -275 174 -227 182 -317 353 -379 718 -18 112 -43 296 -51 395 -4 41 -12 81
-17 88 -14 17 -55 15 -65 -3z m1145 -703 c17 -40 19 -179 6 -449 l-6 -142 -35
-21 c-28 -16 -34 -25 -31 -47 2 -18 10 -29 22 -32 11 -2 90 31 176 74 165 81
216 93 260 62 20 -14 60 -69 60 -82 0 -3 -18 -5 -40 -5 -47 0 -114 -17 -241
-60 -126 -43 -131 -46 -127 -78 5 -40 35 -39 178 8 69 22 143 43 166 47 54 7
101 -17 120 -62 25 -60 22 -62 -63 -57 -48 2 -115 -2 -173 -12 -130 -23 -166
-49 -122 -89 16 -15 25 -15 112 3 104 22 194 25 234 10 32 -12 66 -65 66 -102
0 -43 -37 -132 -68 -161 -41 -40 -80 -51 -108 -32 -40 26 -26 105 18 105 47 0
77 59 40 79 -20 10 -73 2 -110 -18 -33 -18 -43 -44 -53 -149 -16 -160 -69
-246 -184 -303 -83 -40 -168 -48 -265 -25 -63 16 -160 52 -160 60 0 2 14 33
30 70 37 81 54 153 75 316 25 201 53 408 69 512 13 86 32 237 67 523 6 50 16
96 21 102 16 19 47 -3 66 -45z m-182 -156 c-3 -11 -6 -36 -6 -53 0 -31 -1 -32
-32 -26 -64 12 -188 75 -188 95 0 8 147 15 198 9 29 -3 33 -7 28 -25z m432 24
c46 0 63 -3 60 -12 -5 -16 -145 -87 -178 -90 -29 -3 -30 -2 -30 56 0 38 3 45
23 49 12 3 31 3 42 1 11 -2 49 -4 83 -4z m407 -590 c23 -25 15 -65 -22 -122
l-28 -42 -6 53 c-4 28 -13 66 -20 82 -10 26 -10 32 2 40 23 15 55 10 74 -11z"/>
<path d="M3687 2013 c-4 -3 -7 -206 -7 -450 l0 -443 75 0 75 0 0 170 c0 93 5
192 11 220 13 62 57 110 116 128 55 16 81 15 131 -8 33 -15 47 -29 62 -62 17
-38 20 -67 20 -245 l0 -203 75 0 75 0 0 220 c0 196 -2 225 -20 274 -27 72 -48
96 -112 131 -47 26 -63 29 -138 29 -86 0 -138 -16 -197 -60 l-23 -16 0 161 0
161 -68 0 c-38 0 -72 -3 -75 -7z"/>
<path d="M5920 1570 l0 -450 75 0 75 0 0 183 c0 101 5 200 11 222 43 155 279
163 318 10 6 -24 11 -127 11 -229 l0 -186 75 0 75 0 0 208 c0 228 -9 286 -56
353 -17 25 -47 49 -83 66 -47 24 -68 28 -136 28 -81 -1 -133 -17 -192 -61
l-23 -16 0 161 0 161 -75 0 -75 0 0 -450z"/>
<path d="M5445 1772 c-66 -12 -134 -51 -166 -95 -24 -34 -29 -49 -29 -101 0
-80 22 -116 92 -149 29 -15 95 -33 146 -42 141 -24 166 -39 160 -92 -7 -65
-144 -84 -273 -37 -38 13 -77 27 -85 30 -11 3 -22 -11 -38 -48 l-23 -52 22
-17 c47 -35 138 -54 264 -54 108 0 125 2 169 25 101 51 142 151 97 242 -34 70
-78 90 -280 129 -79 15 -117 44 -107 82 3 15 18 35 33 44 40 26 170 23 243 -5
30 -12 55 -22 56 -22 0 0 11 23 24 50 21 44 22 52 9 64 -39 38 -218 65 -314
48z"/>
<path d="M4480 1547 c0 -247 6 -284 61 -350 41 -50 100 -79 175 -85 92 -7 147
5 204 44 l50 34 0 -35 0 -35 70 0 70 0 0 325 0 325 -74 0 -75 0 -3 -207 c-3
-199 -4 -210 -27 -247 -60 -96 -217 -102 -278 -9 -15 23 -19 57 -23 243 l-5
215 -72 3 -73 3 0 -224z"/>
</g>
</svg>
